<svg xmlns="http://www.w3.org/2000/svg" viewBox="0 0 640 200" role="img" aria-label="New Top Ten Plus — Tailors Fabrics Fashion">
  <rect x="4" y="4" width="632" height="192" rx="14" fill="#e01212"/>
  <rect x="14" y="14" width="612" height="172" rx="10" fill="none" stroke="#ffffff" stroke-width="3"/>

  <!-- New -->
  <text x="40" y="52" font-family="Segoe UI, Arial, sans-serif" font-size="26" font-style="italic" font-weight="700" fill="#ffffff">New</text>

  <!-- Top -->
  <text x="40" y="126" font-family="Segoe UI, Arial, sans-serif" font-size="86" font-weight="800" fill="#ffffff">Top</text>

  <!-- House + medical cross emblem -->
  <g transform="translate(292,44)">
    <path d="M28 2 L54 22 L48 22 L28 8 L8 22 L2 22 Z" fill="#ffffff"/>
    <path d="M28 20 L52 38 L52 40 L4 40 L4 38 Z" fill="#ffffff"/>
    <rect x="10" y="42" width="36" height="34" rx="3" fill="#ffffff"/>
    <rect x="25" y="48" width="6" height="22" fill="#e01212"/>
    <rect x="17" y="56" width="22" height="6" fill="#e01212"/>
  </g>

  <!-- Ten -->
  <text x="360" y="126" font-family="Segoe UI, Arial, sans-serif" font-size="86" font-weight="800" fill="#ffffff">Ten</text>

  <!-- Plus -->
  <text x="556" y="150" font-family="Segoe UI, Arial, sans-serif" font-size="30" font-weight="800" fill="#ffffff">Plus</text>

  <!-- Tagline chips -->
  <g font-family="Segoe UI, Arial, sans-serif" font-size="24" font-weight="700" fill="#ffffff">
    <rect x="110" y="150" width="120" height="36" rx="8" fill="none" stroke="#ffffff" stroke-width="2"/>
    <text x="170" y="175" text-anchor="middle">Tailors</text>
    <rect x="248" y="150" width="120" height="36" rx="8" fill="none" stroke="#ffffff" stroke-width="2"/>
    <text x="308" y="175" text-anchor="middle">Fabrics</text>
    <rect x="386" y="150" width="130" height="36" rx="8" fill="none" stroke="#ffffff" stroke-width="2"/>
    <text x="451" y="175" text-anchor="middle">Fashion</text>
  </g>
</svg>
